{
	"asset":{
		"generator":"Khronos glTF Blender I/O v4.2.60",
		"version":"2.0"
	},
	"extensionsUsed":[
		"KHR_materials_emissive_strength",
		"KHR_materials_specular"
	],
	"scene":0,
	"scenes":[
		{
			"extras":{
				"compify_config":{
					"footage":{},
					"camera":{},
					"geo_collection":{},
					"lights_collection":{}
				},
				"gltf2_KHR_materials_variants_variants":[
					{
						"name":"Red",
						"variant_idx":0
					},
					{
						"name":"Blue",
						"variant_idx":1
					},
					{
						"variant_idx":2,
						"name":"Green"
					},
					{
						"variant_idx":3,
						"name":"TransparentArrows"
					},
					{
						"variant_idx":4,
						"name":"Red2"
					},
					{
						"variant_idx":5,
						"name":"Blue2"
					},
					{
						"variant_idx":6,
						"name":"Green2"
					}
				],
				"omnistep_settings":{
					"operator_running":0,
					"operator_error":0,
					"original_autokey":0,
					"original_focal":50.0,
					"child_of":{},
					"n_panel_visible":1,
					"t_panel_visible":1,
					"header_visible":0,
					"gizmos_visible":1,
					"overlays_visible":1,
					"script_source":{}
				},
				"gltf2_active_variant":0
			},
			"name":"Scene",
			"nodes":[
				0
			]
		}
	],
	"nodes":[
		{
			"mesh":0,
			"name":"Body_Bike_Mat_Lighter_0.001",
			"rotation":[
				0.0028425694908946753,
				-0.7071011066436768,
				-0.707101047039032,
				0.0028426125645637512
			],
			"translation":[
				0.1460915505886078,
				0,
				4.800299644470215
			]
		}
	],
	"materials":[
		{
			"doubleSided":true,
			"emissiveFactor":[
				1,
				1,
				1
			],
			"emissiveTexture":{
				"index":0
			},
			"extensions":{
				"KHR_materials_emissive_strength":{
					"emissiveStrength":1.5
				},
				"KHR_materials_specular":{
					"specularFactor":0
				}
			},
			"name":"Bike_Mat_Lighter.001",
			"pbrMetallicRoughness":{
				"baseColorFactor":[
					0,
					0,
					0,
					1
				],
				"metallicFactor":0,
				"roughnessFactor":0.8040408492088318
			}
		},
		{
			"emissiveFactor":[
				0.10000000149011612,
				0.10000000149011612,
				0.10000000149011612
			],
			"emissiveTexture":{
				"index":1
			},
			"extensions":{
				"KHR_materials_specular":{
					"specularFactor":0
				}
			},
			"name":"Bike_Mat_Outline.001",
			"pbrMetallicRoughness":{
				"baseColorFactor":[
					0,
					0,
					0,
					1
				],
				"metallicFactor":0,
				"roughnessFactor":0.8040408492088318
			}
		},
		{
			"doubleSided":true,
			"emissiveFactor":[
				1,
				1,
				1
			],
			"emissiveTexture":{
				"index":2
			},
			"extensions":{
				"KHR_materials_specular":{
					"specularFactor":0
				}
			},
			"name":"Bike_Mat_Default.001",
			"pbrMetallicRoughness":{
				"baseColorFactor":[
					0,
					0,
					0,
					1
				],
				"baseColorTexture":{
					"index":3
				},
				"metallicFactor":0,
				"roughnessFactor":0.8040408492088318
			}
		}
	],
	"meshes":[
		{
			"name":"Body_Bike_Mat_Lighter_0.001",
			"primitives":[
				{
					"attributes":{
						"POSITION":0,
						"NORMAL":1,
						"TEXCOORD_0":2
					},
					"indices":3,
					"material":0
				},
				{
					"attributes":{
						"POSITION":4,
						"NORMAL":5,
						"TEXCOORD_0":6
					},
					"indices":7,
					"material":1
				},
				{
					"attributes":{
						"POSITION":8,
						"NORMAL":9,
						"TEXCOORD_0":10
					},
					"indices":11,
					"material":2
				}
			]
		}
	],
	"textures":[
		{
			"sampler":0,
			"source":0
		},
		{
			"sampler":1,
			"source":0
		},
		{
			"sampler":0,
			"source":0
		},
		{
			"sampler":0,
			"source":0
		}
	],
	"images":[
		{
			"mimeType":"image/png",
			"name":"Bike_Mat_Default_baseColor",
			"uri":"Bike_Mat_Default_baseColor.png"
		},
		{
			"mimeType":"image/png",
			"name":"Bike_Mat_Default_baseColor",
			"uri":"Bike_Mat_Default_baseColor-1.png"
		},
		{
			"mimeType":"image/png",
			"name":"Color-blue",
			"uri":"Color-blue.png"
		},
		{
			"mimeType":"image/png",
			"name":"Color-blue.jpg",
			"uri":"Color-blue_jpg.png"
		},
		{
			"mimeType":"image/png",
			"name":"Color-blue.jpg",
			"uri":"Color-blue_jpg-1.png"
		},
		{
			"mimeType":"image/png",
			"name":"Color-Green",
			"uri":"Color-Green.png"
		},
		{
			"mimeType":"image/png",
			"name":"Color-red",
			"uri":"Color-red.png"
		},
		{
			"mimeType":"image/png",
			"name":"Color-red.jpg",
			"uri":"Color-red_jpg.png"
		},
		{
			"mimeType":"image/png",
			"name":"Color-red.jpg",
			"uri":"Color-red_jpg-1.png"
		},
		{
			"mimeType":"image/png",
			"name":"HD_transparent_picture",
			"uri":"HD_transparent_picture.png"
		},
		{
			"mimeType":"image/png",
			"name":"Image_0",
			"uri":"Image_0.png"
		},
		{
			"mimeType":"image/png",
			"name":"Image_1",
			"uri":"Image_1.png"
		},
		{
			"mimeType":"image/png",
			"name":"Image_1",
			"uri":"Image_1-1.png"
		},
		{
			"mimeType":"image/png",
			"name":"Image_2",
			"uri":"Image_2.png"
		},
		{
			"mimeType":"image/png",
			"name":"Image_3",
			"uri":"Image_3.png"
		},
		{
			"mimeType":"image/png",
			"name":"Image_4",
			"uri":"Image_4.png"
		},
		{
			"mimeType":"image/png",
			"name":"Image_5",
			"uri":"Image_5.png"
		},
		{
			"mimeType":"image/png",
			"name":"Image_6",
			"uri":"Image_6.png"
		},
		{
			"mimeType":"image/png",
			"name":"lines",
			"uri":"lines.png"
		},
		{
			"mimeType":"image/png",
			"name":"lines.png",
			"uri":"lines_png.png"
		},
		{
			"mimeType":"image/png",
			"name":"PedestrianBlue",
			"uri":"PedestrianBlue.png"
		},
		{
			"mimeType":"image/png",
			"name":"PedestrianGreen",
			"uri":"PedestrianGreen.png"
		},
		{
			"mimeType":"image/png",
			"name":"PedestrianRed",
			"uri":"PedestrianRed.png"
		}
	],
	"accessors":[
		{
			"bufferView":0,
			"componentType":5126,
			"count":256,
			"max":[
				0.41335800290107727,
				0.24207384884357452,
				0.39660030603408813
			],
			"min":[
				-0.415200799703598,
				-0.36067286133766174,
				-0.0009259870275855064
			],
			"type":"VEC3"
		},
		{
			"bufferView":1,
			"componentType":5126,
			"count":256,
			"type":"VEC3"
		},
		{
			"bufferView":2,
			"componentType":5126,
			"count":256,
			"type":"VEC2"
		},
		{
			"bufferView":3,
			"componentType":5123,
			"count":666,
			"type":"SCALAR"
		},
		{
			"bufferView":4,
			"componentType":5126,
			"count":1325,
			"max":[
				0.41605135798454285,
				0.37324580550193787,
				0.39833325147628784
			],
			"min":[
				-0.4170665442943573,
				-0.362660676240921,
				-0.002154557965695858
			],
			"type":"VEC3"
		},
		{
			"bufferView":5,
			"componentType":5126,
			"count":1325,
			"type":"VEC3"
		},
		{
			"bufferView":6,
			"componentType":5126,
			"count":1325,
			"type":"VEC2"
		},
		{
			"bufferView":7,
			"componentType":5123,
			"count":4764,
			"type":"SCALAR"
		},
		{
			"bufferView":8,
			"componentType":5126,
			"count":820,
			"max":[
				0.4143509566783905,
				0.37067437171936035,
				0.39660030603408813
			],
			"min":[
				-0.415200799703598,
				-0.30591896176338196,
				-0.0021355440840125084
			],
			"type":"VEC3"
		},
		{
			"bufferView":9,
			"componentType":5126,
			"count":820,
			"type":"VEC3"
		},
		{
			"bufferView":10,
			"componentType":5126,
			"count":820,
			"type":"VEC2"
		},
		{
			"bufferView":11,
			"componentType":5123,
			"count":2298,
			"type":"SCALAR"
		}
	],
	"bufferViews":[
		{
			"buffer":0,
			"byteLength":3072,
			"byteOffset":0,
			"target":34962
		},
		{
			"buffer":0,
			"byteLength":3072,
			"byteOffset":3072,
			"target":34962
		},
		{
			"buffer":0,
			"byteLength":2048,
			"byteOffset":6144,
			"target":34962
		},
		{
			"buffer":0,
			"byteLength":1332,
			"byteOffset":8192,
			"target":34963
		},
		{
			"buffer":0,
			"byteLength":15900,
			"byteOffset":9524,
			"target":34962
		},
		{
			"buffer":0,
			"byteLength":15900,
			"byteOffset":25424,
			"target":34962
		},
		{
			"buffer":0,
			"byteLength":10600,
			"byteOffset":41324,
			"target":34962
		},
		{
			"buffer":0,
			"byteLength":9528,
			"byteOffset":51924,
			"target":34963
		},
		{
			"buffer":0,
			"byteLength":9840,
			"byteOffset":61452,
			"target":34962
		},
		{
			"buffer":0,
			"byteLength":9840,
			"byteOffset":71292,
			"target":34962
		},
		{
			"buffer":0,
			"byteLength":6560,
			"byteOffset":81132,
			"target":34962
		},
		{
			"buffer":0,
			"byteLength":4596,
			"byteOffset":87692,
			"target":34963
		}
	],
	"samplers":[
		{
			"magFilter":9728,
			"minFilter":9984
		},
		{
			"magFilter":9729,
			"minFilter":9987
		}
	],
	"buffers":[
		{
			"byteLength":92288,
			"uri":"HandlesBike.bin"
		}
	]
}
